<svg xmlns:dc="http://purl.org/dc/elements/1.1/" xmlns:cc="http://creativecommons.org/ns#" xmlns:rdf="http://www.w3.org/1999/02/22-rdf-syntax-ns#" xmlns:svg="http://www.w3.org/2000/svg" xmlns="http://www.w3.org/2000/svg" xmlns:sodipodi="http://sodipodi.sourceforge.net/DTD/sodipodi-0.dtd" xmlns:inkscape="http://www.inkscape.org/namespaces/inkscape" version="1.1" x="0px" y="0px" viewBox="0 0 100 125"><g transform="translate(0,-952.36218)"><path style="font-size:medium;font-style:normal;font-variant:normal;font-weight:normal;font-stretch:normal;text-indent:0;text-align:start;text-decoration:none;line-height:normal;letter-spacing:normal;word-spacing:normal;text-transform:none;direction:ltr;block-progression:tb;writing-mode:lr-tb;text-anchor:start;baseline-shift:baseline;opacity:1;color:#000000;fill:#000000;fill-opacity:1;stroke:none;stroke-width:4.28571415000000040;marker:none;visibility:visible;display:inline;overflow:visible;enable-background:accumulate;font-family:Sans;-inkscape-font-specification:Sans" d="M 50 6 C 25.72316 6 6 25.72315 6 50 C 6 74.2768 25.72316 94 50 94 C 74.27684 94 94 74.2768 94 50 C 94 25.72315 74.27684 6 50 6 z M 50 10 C 72.115082 10 90 27.88491 90 50 C 90 72.1151 72.115082 90 50 90 C 27.884919 90 10 72.1151 10 50 C 10 27.88491 27.884919 10 50 10 z M 29.8125 33 A 2.0021961 2.0021961 0 1 0 30 37 L 70 37 A 2.0002 2.0002 0 1 0 70 33 L 30 33 A 2.0002 2.0002 0 0 0 29.8125 33 z M 29.8125 48 A 2.0021961 2.0021961 0 1 0 30 52 L 70 52 A 2.0002 2.0002 0 1 0 70 48 L 30 48 A 2.0002 2.0002 0 0 0 29.8125 48 z M 29.8125 63 A 2.0021961 2.0021961 0 1 0 30 67 L 63 67 A 2.0002 2.0002 0 1 0 63 63 L 30 63 A 2.0002 2.0002 0 0 0 29.8125 63 z M 70 63 C 68.895431 63 68 63.895431 68 65 C 68 66.104569 68.895431 67 70 67 C 71.104569 67 72 66.104569 72 65 C 72 63.895431 71.104569 63 70 63 z " transform="translate(0,952.36218)"/></g><text x="0" y="115" fill="#000000" font-size="5px" font-weight="bold" font-family="'Helvetica Neue', Helvetica, Arial-Unicode, Arial, Sans-serif">Created by cathy moser</text><text x="0" y="120" fill="#000000" font-size="5px" font-weight="bold" font-family="'Helvetica Neue', Helvetica, Arial-Unicode, Arial, Sans-serif">from the Noun Project</text></svg>